<?xml version="1.0" encoding="iso-8859-1"?>
<!-- Generator: Adobe Illustrator 19.0.0, SVG Export Plug-In . SVG Version: 6.00 Build 0)  -->
<svg xmlns="http://www.w3.org/2000/svg" xmlns:xlink="http://www.w3.org/1999/xlink" version="1.1" id="Layer_1" x="0px" y="0px" viewBox="0 0 502 502" style="enable-background:new 0 0 502 502;" xml:space="preserve" width="512" height="512">
<g>
	<g>
		<rect x="48.246" y="58.2" style="fill:#4D4D4D;" width="405.509" height="433.8"/>
		<rect x="92.778" y="101.161" style="fill:#CCCCCC;" width="316.443" height="390.839"/>
		<g>
			<rect x="187.083" y="10" style="fill:#22B573;" width="63.917" height="48.2"/>
			<rect x="251" y="10" style="fill:#C1272D;" width="63.917" height="48.2"/>
		</g>
	</g>
	<g>
		<path d="M453.754,502c5.523,0,10-4.477,10-10V58.2c0-5.523-4.477-10-10-10H324.917V10c0-5.523-4.477-10-10-10H187.083    c-5.523,0-10,4.477-10,10v38.2H48.246c-5.523,0-10,4.477-10,10V492c0,5.523,4.477,10,10,10H453.754z M304.917,48.2H261V20h43.917    V48.2z M197.083,20H241v28.2h-43.917V20z M261,482V201.752c0-5.523-4.477-10-10-10s-10,4.477-10,10V482H102.778V111.161h296.443    V482H261z M443.754,68.2V482h-24.533V101.161c0-5.523-4.477-10-10-10H92.778c-5.523,0-10,4.477-10,10V482H58.246V68.2H443.754z"/>
		<path d="M251,132.026c-5.523,0-10,4.477-10,10v16.766c0,5.523,4.477,10,10,10s10-4.477,10-10v-16.766    C261,136.503,256.523,132.026,251,132.026z"/>
	</g>
</g>
</svg>
